<svg xmlns="http://www.w3.org/2000/svg" xmlns:xlink="http://www.w3.org/1999/xlink" viewBox="0 0 157.87 157.87"><defs><style>.cls-1{fill:none;}.cls-2{fill:#43bfb4;}.cls-3{clip-path:url(#clip-path);}</style><clipPath id="clip-path"><rect class="cls-1" x="47.71" y="49.59" width="67.63" height="63.4"/></clipPath></defs><title>Asset 3</title><g id="Layer_2" data-name="Layer 2"><g id="Layer_1-2" data-name="Layer 1"><circle class="cls-2" cx="78.93" cy="78.93" r="78.93"/><g class="cls-3"><path d="M104.07,76.79H97.3V74.53a2.25,2.25,0,0,0-2.25-2.25H50a2.25,2.25,0,0,0-2.25,2.25v18A20.31,20.31,0,0,0,68,112.86h9a20.27,20.27,0,0,0,19-13.53h8a11.32,11.32,0,0,0,11.27-11.27,11.29,11.29,0,0,0-11.27-11.27ZM92.79,92.57A15.79,15.79,0,0,1,77,108.35H68A15.79,15.79,0,0,1,52.22,92.57V76.79H92.79Zm16,.27a6.56,6.56,0,0,1-4.74,2h-7a18.43,18.43,0,0,0,.23-2.25V81.3h6.77a6.77,6.77,0,0,1,6.76,6.76,6.6,6.6,0,0,1-2,4.78Z"/><path d="M88,57.65c-1.5-2.67-.56-3.86-.41-4a2.26,2.26,0,0,0-3.06-3.32c-.15.15-3.85,3.54-.47,9.56,1.53,2.71.53,3.9.47,4A2.25,2.25,0,0,0,84.34,67a2.26,2.26,0,0,0,3.19.19c.16-.14,3.85-3.53.47-9.55Z"/><path d="M72.22,57.65c-1.5-2.67-.56-3.86-.41-4a2.26,2.26,0,0,0-3.06-3.32c-.15.15-3.85,3.54-.47,9.56,1.53,2.71.53,3.9.47,4A2.25,2.25,0,0,0,68.56,67a2.26,2.26,0,0,0,3.19.19c.15-.14,3.85-3.53.47-9.55Z"/><path d="M56.44,57.65c-1.5-2.67-.56-3.86-.42-4A2.25,2.25,0,0,0,53,50.3c-.16.15-3.85,3.54-.47,9.56,1.53,2.71.53,3.9.47,4A2.25,2.25,0,0,0,52.78,67,2.26,2.26,0,0,0,56,67.2c.15-.14,3.85-3.53.47-9.55Z"/></g></g></g></svg>