<svg xmlns="http://www.w3.org/2000/svg" viewBox="0 0 157.87 157.87"><defs><style>.cls-1{fill:#43bfb4;}</style></defs><title>Asset 5</title><g id="Layer_2" data-name="Layer 2"><g id="Layer_1-2" data-name="Layer 1"><circle class="cls-1" cx="78.93" cy="78.93" r="78.93"/><path d="M58.08,113.2l-2.14-3a1.43,1.43,0,0,0-2.33,1.65l2.15,3a1.43,1.43,0,0,0,1.16.6,1.43,1.43,0,0,0,1.16-2.25Z"/><path d="M74.54,113.73,72.2,102.59A21,21,0,0,0,63.32,89.4l-5-3.35A5,5,0,0,0,52,86.7V69.51a4.78,4.78,0,0,0-9.55,0V91.63a13.9,13.9,0,0,0,2.56,8l2.55,3.58a1.41,1.41,0,0,0,1.16.6,1.38,1.38,0,0,0,.82-.26,1.42,1.42,0,0,0,.34-2L47.31,98a11,11,0,0,1-2-6.39V69.51A1.91,1.91,0,0,1,46,68a1.92,1.92,0,0,1,3.13,1.5V87.06a10,10,0,0,0,2.57,6.69c.07.08.14.17.22.25L55,97.3l1.47,1.56v0c1.26,1.33,2.18,2.32,2.2,2.34a1.43,1.43,0,0,0,2.08-2s-1.69-1.81-3.6-3.83L53.91,92l0,0a2.43,2.43,0,0,1,0-3.16,2.16,2.16,0,0,1,2.81-.35l5,3.35a18.15,18.15,0,0,1,7.68,11.41l2.34,11.13a1.42,1.42,0,0,0,1.39,1.14,1.53,1.53,0,0,0,.3,0,1.43,1.43,0,0,0,1.1-1.69Z"/><path d="M53,106h0a1.43,1.43,0,0,0-2.33,1.66h0a1.44,1.44,0,0,0,1.17.6,1.41,1.41,0,0,0,.82-.27,1.44,1.44,0,0,0,.34-2Z"/><path d="M113.66,65.79a4.77,4.77,0,0,0-7.76,3.72V86.7a5,5,0,0,0-6.36-.65l-5,3.35a21,21,0,0,0-8.89,13.19l-2.33,11.14a1.42,1.42,0,0,0,1.1,1.69l.29,0a1.43,1.43,0,0,0,1.4-1.14l2.33-11.13a18.2,18.2,0,0,1,7.69-11.41l5-3.35a2.16,2.16,0,0,1,2.81.35,2.43,2.43,0,0,1,0,3.16l0,0-6.87,7.31a1.42,1.42,0,0,0,2.07,2L106,94c.08-.08.15-.17.22-.25a10,10,0,0,0,2.57-6.69V69.51a1.92,1.92,0,0,1,3.13-1.5,1.94,1.94,0,0,1,.72,1.5V91.63a11,11,0,0,1-2,6.39L99.78,113.2a1.43,1.43,0,0,0,2.33,1.65l10.77-15.18a13.83,13.83,0,0,0,2.57-8V69.51a4.73,4.73,0,0,0-1.79-3.72Z"/><path d="M97,69.76l-2.54-.61v-.46a6.36,6.36,0,0,0,2.73-5.23V60.17a6.38,6.38,0,0,0-10.52-4.86,8.33,8.33,0,0,0-15.44,0,6.38,6.38,0,0,0-10.54,4.85v3.29a6.36,6.36,0,0,0,2.73,5.23v.46l-2.53.61a6.68,6.68,0,0,0-5.15,6.52v2.66a1.43,1.43,0,0,0,1.43,1.43h6.55c0,.17,0,.34,0,.52V86a1.43,1.43,0,0,0,1.43,1.42H73.7a1.43,1.43,0,1,0,0-2.85H72.23v-3a1.43,1.43,0,0,0-2.85,0v3H66.56v-3.7a5.9,5.9,0,0,1,4.54-5.76L75,74.19l2.62,6a1.42,1.42,0,0,0,1.31.85h0a1.41,1.41,0,0,0,1.3-.85l2.62-6,3.9.93a5.9,5.9,0,0,1,4.55,5.76v3.7H88.49v-3a1.43,1.43,0,0,0-2.85,0v3H84a1.43,1.43,0,1,0,0,2.85h8.72A1.42,1.42,0,0,0,94.16,86V80.89c0-.17,0-.35,0-.52h6.57a1.42,1.42,0,0,0,1.42-1.43V76.28A6.67,6.67,0,0,0,97,69.76ZM90.81,56.63a3.53,3.53,0,0,1,3.52,3.3h-2a10.41,10.41,0,0,1-4.78-1.16,3.53,3.53,0,0,1,3.24-2.14Zm-3.53,6.63V61.78a13.28,13.28,0,0,0,5.07,1h2v.68a3.53,3.53,0,1,1-7.06,0ZM73.47,58.45a5.48,5.48,0,0,1,10.89-.87L82,56.17a1.44,1.44,0,0,0-1.82.31,6.11,6.11,0,0,1-4.72,2.21h-2Zm-6.39-1.82a3.53,3.53,0,0,1,3.24,2.14,10.47,10.47,0,0,1-4.78,1.16h-2a3.54,3.54,0,0,1,3.53-3.3Zm-3.53,6.15h2a13.14,13.14,0,0,0,5.07-1v1.69a3.53,3.53,0,1,1-7.06,0Zm6.88,9.57a8.78,8.78,0,0,0-6.06,5.16H58.59V76.28a3.85,3.85,0,0,1,3-3.75l3.63-.87a1.42,1.42,0,0,0,1.1-1.38V69.8a6.35,6.35,0,0,0,1.59,0v.47a1.44,1.44,0,0,0,.65,1.2,1.39,1.39,0,0,0,.51.2l2.13.51Zm4-2.21a7.29,7.29,0,0,0-1.14-.39l-2.55-.61V68.7A6.34,6.34,0,0,0,72,67.57,8.45,8.45,0,0,0,74.41,70Zm6.2,2.09L78.94,76l-1.67-3.8v-1a8.4,8.4,0,0,0,1.68.17,8.27,8.27,0,0,0,1.66-.17ZM79,68.53a5.49,5.49,0,0,1-5.48-5.48V61.54h2a9,9,0,0,0,6.06-2.34l2.94,1.73v2.33A5.49,5.49,0,0,1,79,68.53Zm4.51,1.61v-.09a8.31,8.31,0,0,0,2.47-2.47,6.88,6.88,0,0,0,1.23,1.12v.44l-2.55.61a7.78,7.78,0,0,0-1.15.39Zm15.83,7.37h-5.8a8.74,8.74,0,0,0-6.06-5.15l-.72-.17,2.14-.52a1.39,1.39,0,0,0,.51-.2,1.44,1.44,0,0,0,.65-1.2V69.8a6.43,6.43,0,0,0,1.6,0v.48a1.41,1.41,0,0,0,1.09,1.38l3.64.87a3.84,3.84,0,0,1,3,3.75Z"/><path d="M79.94,85a1.41,1.41,0,0,0-1-.42A1.42,1.42,0,0,0,77.51,86a1.4,1.4,0,0,0,1.42,1.42A1.42,1.42,0,0,0,80.36,86a1.41,1.41,0,0,0-.42-1Z"/><path d="M78.93,42.42a1.42,1.42,0,0,0-1.42,1.42V46a1.43,1.43,0,1,0,2.85,0V43.84a1.43,1.43,0,0,0-1.43-1.42Z"/><path d="M73.68,47.07l-1.5-1.49a1.42,1.42,0,1,0-2,2l1.49,1.5a1.43,1.43,0,0,0,1,.42,1.43,1.43,0,0,0,1-2.44Z"/><path d="M87.67,45.61a1.44,1.44,0,0,0-2,0L84.16,47.1a1.44,1.44,0,0,0,0,2,1.42,1.42,0,0,0,1,.41,1.41,1.41,0,0,0,1-.41l1.49-1.49a1.44,1.44,0,0,0,0-2Z"/></g></g></svg>