<svg xmlns="http://www.w3.org/2000/svg" xmlns:xlink="http://www.w3.org/1999/xlink" viewBox="0 0 157.87 157.87"><defs><style>.cls-1{fill:none;}.cls-2{fill:#43bfb4;}.cls-3{clip-path:url(#clip-path);}</style><clipPath id="clip-path"><rect class="cls-1" x="49.25" y="34.42" width="58.38" height="86.01"/></clipPath></defs><title>Asset 6</title><g id="Layer_2" data-name="Layer 2"><g id="Layer_1-2" data-name="Layer 1"><circle class="cls-2" cx="78.93" cy="78.93" r="78.93"/><g class="cls-3"><path d="M107.41,118.33l-4.5-8.55,2.21-2a1.28,1.28,0,0,0,.17-1.69L97.14,94.87a1.27,1.27,0,0,0-1-.52H95.6V78.85a10,10,0,0,0-.13-1.64l3.87-1.14a1.32,1.32,0,0,0,.94-1.44,1.28,1.28,0,0,0-1.62-1l-3.91,1.16c-.11-.24-.22-.47-.34-.69l5.27-3.72a1.27,1.27,0,1,0-1.47-2.08L92.94,72a9.41,9.41,0,0,0-1.22-1.14L95.86,64a1.27,1.27,0,0,0-2.18-1.31l-4.14,6.88a10.47,10.47,0,0,0-2.85-.79V59a1.31,1.31,0,0,0-1.23-1.32A1.28,1.28,0,0,0,84.14,59v9.76a10.4,10.4,0,0,0-2.84.79l-4.14-6.88A1.28,1.28,0,0,0,75,64l4.15,6.89A10.19,10.19,0,0,0,77.89,72l-5.27-3.72a1.27,1.27,0,0,0-1.47,2.08l5.28,3.72a5.52,5.52,0,0,0-.34.69l-3.91-1.16a1.28,1.28,0,0,0-1.6.9,1.32,1.32,0,0,0,.93,1.56l3.86,1.14a10,10,0,0,0-.14,1.64V92.29l-2.51-1.12L64.15,62V54.11h2.36a1.27,1.27,0,0,0,1.27-1.27V48.76a1.27,1.27,0,0,0-1.27-1.27H64.87l1.06-9.08a1.31,1.31,0,0,0-.39-1.11,1.26,1.26,0,0,0-1.64-.09l-2.16,1.64L60.5,35.37a1.31,1.31,0,0,0-.82-.82,1.26,1.26,0,0,0-1.52.62L56,39.31l-2.64-2.07A1.33,1.33,0,0,0,52.2,37a1.27,1.27,0,0,0-.9,1.4l1.26,9.09H50.72a1.27,1.27,0,0,0-1.27,1.27v4.08a1.27,1.27,0,0,0,1.27,1.27h2.36V58a5.38,5.38,0,0,0,4.72,5.34l2.11,17.38a1.27,1.27,0,0,0,2.53-.3l-2.07-17h1.56l8.33,28.41-5.59,7-1.5-12.34a1.27,1.27,0,0,0-2.53.3l1.8,14.83L59,106a1.28,1.28,0,0,0,0,1.6l5.58,6.83V119a1.27,1.27,0,0,0,1.27,1.27H106.3a1.26,1.26,0,0,0,1.21-.88,1.32,1.32,0,0,0-.1-1ZM55.65,42.26a1.3,1.3,0,0,0,1.06.24,1.28,1.28,0,0,0,.86-.66l1.5-2.9.86,2.4a1.29,1.29,0,0,0,.84.8,1.27,1.27,0,0,0,1.13-.21l1.16-.88-.76,6.44H55.13l-.88-6.33Zm6,18.6H58.46A2.84,2.84,0,0,1,55.62,58V54.11h6Zm-7.26-9.3H52V50H65.24v1.52ZM85.42,71.22a7.63,7.63,0,0,1,7.45,6,10.15,10.15,0,0,0-14.91,0,7.65,7.65,0,0,1,7.46-6ZM77.78,89.91a10.16,10.16,0,0,0,7.64,3.46,1.28,1.28,0,0,0,0-2.55,7.65,7.65,0,0,1-7.63-7.17,7.64,7.64,0,0,1,15.27.46V94.35H79.83l-2-.92Zm.53,27.77H67.08v-3.3l6.49-8.66a1.27,1.27,0,1,0-2-1.52l-5.77,7.69-4.18-5.13,10.46-13.1,5.53,2.47L75.51,98.9a1.27,1.27,0,0,0,.25,1.78,1.27,1.27,0,0,0,1.79-.25l2.65-3.54H93.6Zm3.16,0,14.64-19.9,6.45,8.87-5,4.58a1.27,1.27,0,0,0,.86,2.22,1.23,1.23,0,0,0,.85-.34l1.71-1.55,3.22,6.12Z"/></g><path d="M90.55,80.91l-4.84-1.13a1.14,1.14,0,0,0-.58,0l-4.85,1.13a1.27,1.27,0,1,0,.58,2.48l3.28-.76v1.9a1.28,1.28,0,1,0,2.55,0v-1.9l3.28.76a1,1,0,0,0,.29,0,1.28,1.28,0,0,0,.29-2.52Z"/></g></g></svg>