<svg xmlns="http://www.w3.org/2000/svg" xmlns:xlink="http://www.w3.org/1999/xlink" viewBox="0 0 157.87 157.87"><defs><style>.cls-1{fill:none;}.cls-2{fill:#43bfb4;}.cls-3{clip-path:url(#clip-path);}</style><clipPath id="clip-path"><rect class="cls-1" x="37.31" y="37.31" width="83.25" height="83.25"/></clipPath></defs><title>Asset 4</title><g id="Layer_2" data-name="Layer 2"><g id="Layer_1-2" data-name="Layer 1"><circle class="cls-2" cx="78.93" cy="78.93" r="78.93"/><g class="cls-3"><path d="M120.51,92.3a1.61,1.61,0,0,0-1.33-1.22l-9.33-1.44a35.05,35.05,0,0,0-11.52.11c.92-.88,1.81-1.79,2.66-2.75a43.64,43.64,0,0,0,8.25-13.79l3.84-10.37a1.61,1.61,0,0,0-.44-1.78,1.66,1.66,0,0,0-1.83-.23L101,65.92A43.69,43.69,0,0,0,88.57,75.5,41.13,41.13,0,0,0,89.45,67a42,42,0,0,0-4-17.73L80.39,38.4a1.63,1.63,0,0,0-2.94,0l-5.1,10.85c-.24.52-.48,1-.7,1.57a1.63,1.63,0,1,0,3,1.26c.2-.48.42-1,.64-1.45l3.63-7.71,3.63,7.71A38.48,38.48,0,0,1,83.86,80.2l-1.69,4.6a44.66,44.66,0,0,0-3.24,8.27,44.24,44.24,0,0,0-3.31-8.42L74,80.2A38.21,38.21,0,0,1,71.64,67a36.82,36.82,0,0,1,.21-3.93,1.63,1.63,0,0,0-3.24-.34c-.14,1.42-.22,2.85-.22,4.27a41.54,41.54,0,0,0,.88,8.49,43.77,43.77,0,0,0-12.39-9.55l-9.82-5.09a1.63,1.63,0,0,0-2.28,2l3.85,10.37A43.46,43.46,0,0,0,56.88,87c.84,1,1.73,1.87,2.66,2.75A35.11,35.11,0,0,0,48,89.64l-9.33,1.44A1.62,1.62,0,0,0,38,94l7.6,5.61A35,35,0,0,0,58,105.45a36.53,36.53,0,0,0,4.52.79,20.36,20.36,0,0,0-2.74,3.88l-2.85,5.23a1.63,1.63,0,0,0,1.42,2.41,1.53,1.53,0,0,0,.3,0l5.85-1.07a19.77,19.77,0,0,0,8.15-3.45,19.54,19.54,0,0,0,4.64-4.74v10.41a1.63,1.63,0,0,0,3.25,0V108.44a19.64,19.64,0,0,0,12.8,8.22l5.86,1.07.29,0a1.63,1.63,0,0,0,1.43-2.41l-2.85-5.23a20.82,20.82,0,0,0-2.74-3.88,36.53,36.53,0,0,0,4.52-.79A35.08,35.08,0,0,0,112.3,99.6L119.9,94a1.61,1.61,0,0,0,.61-1.69Zm-39,3.85A41.6,41.6,0,0,1,84.9,86.6a1.62,1.62,0,0,0,.23-.41l0-.08a40.34,40.34,0,0,1,17.32-17.3l6.09-3.15-2.38,6.42a40.34,40.34,0,0,1-18,21.18l-.92.51a41.32,41.32,0,0,1-5.61,2.47l-.13,0ZM51.68,72.08l-2.39-6.42,6.09,3.15A40.22,40.22,0,0,1,67.12,78a40.69,40.69,0,0,1,9.23,18.2l0,.13-.13,0a41.87,41.87,0,0,1-5.61-2.47l-.91-.51A40.23,40.23,0,0,1,51.68,72.08ZM47.5,97,43,93.7l5.47-.85A31.65,31.65,0,0,1,61,93.38a31.28,31.28,0,0,1,7.29,2.79l.77.42a32.76,32.76,0,0,1,6.83,5.17,32.31,32.31,0,0,1-17.08.53A31.75,31.75,0,0,1,47.5,97Zm23.26,13.6a16.59,16.59,0,0,1-6.83,2.88l-2.51.46,1.22-2.24a16.86,16.86,0,0,1,4.43-5.25,35.63,35.63,0,0,0,8.42-1.19,16.8,16.8,0,0,1-4.73,5.34Zm23.18,2.88a16.41,16.41,0,0,1-11.56-8.22,35.56,35.56,0,0,0,8.42,1.19,16.83,16.83,0,0,1,4.42,5.25l1.22,2.24ZM110.37,97a31.72,31.72,0,0,1-11.29,5.31A32.32,32.32,0,0,1,82,101.76a33.29,33.29,0,0,1,6.83-5.17l.77-.41a31,31,0,0,1,7.29-2.8,31.65,31.65,0,0,1,12.46-.53l5.47.85Z"/></g><path d="M71.21,58.9a1.6,1.6,0,1,0-1.15-.47,1.64,1.64,0,0,0,1.15.47Z"/></g></g></svg>